HIERARCHY
ROOT Hips
{
	OFFSET -0.001795 -0.223333 0.028219
	CHANNELS 6 Xposition Yposition Zposition Zrotation Yrotation Xrotation 
	JOINT LeftUpLeg
	{
		OFFSET 0.069520 -0.091406 -0.006815
		CHANNELS 3 Zrotation Yrotation Xrotation
		JOINT LeftLeg
		{
			OFFSET 0.034277 -0.375199 -0.004496
			CHANNELS 3 Zrotation Yrotation Xrotation
			JOINT LeftFoot
			{
				OFFSET -0.013596 -0.397961 -0.043693
				CHANNELS 3 Zrotation Yrotation Xrotation
				JOINT LeftToe
				{
					OFFSET 0.026358 -0.055791 0.119288
					CHANNELS 3 Zrotation Yrotation Xrotation
					End Site
					{
						OFFSET 0.000000 0.000000 0.000000
					}
				}
			}
		}
	}
	JOINT RightUpLeg
	{
		OFFSET -0.067670 -0.090522 -0.004320
		CHANNELS 3 Zrotation Yrotation Xrotation
		JOINT RightLeg
		{
			OFFSET -0.038290 -0.382569 -0.008850
			CHANNELS 3 Zrotation Yrotation Xrotation
			JOINT RightFoot
			{
				OFFSET 0.015774 -0.398415 -0.042312
				CHANNELS 3 Zrotation Yrotation Xrotation
				JOINT RightToe
				{
					OFFSET -0.025372 -0.048144 0.123348
					CHANNELS 3 Zrotation Yrotation Xrotation
					End Site
					{
						OFFSET 0.000000 0.000000 0.000000
					}
				}
			}
		}
	}
	JOINT Spine
	{
		OFFSET -0.002533 0.108963 -0.026696
		CHANNELS 3 Zrotation Yrotation Xrotation
		JOINT Spine1
		{
			OFFSET 0.005487 0.135180 0.001092
			CHANNELS 3 Zrotation Yrotation Xrotation
			JOINT Spine2
			{
				OFFSET 0.001457 0.052922 0.025425
				CHANNELS 3 Zrotation Yrotation Xrotation
				JOINT Neck
				{
					OFFSET -0.002778 0.213870 -0.042857
					CHANNELS 3 Zrotation Yrotation Xrotation
					JOINT Head
					{
						OFFSET 0.005152 0.064970 0.051349
						CHANNELS 3 Zrotation Yrotation Xrotation
						End Site
						{
							OFFSET 0.000000 0.000000 0.000000
						}
					}
				}
				JOINT LeftShoulder
				{
					OFFSET 0.078845 0.121749 -0.034090
					CHANNELS 3 Zrotation Yrotation Xrotation
					JOINT LeftArm
					{
						OFFSET 0.090977 0.030469 -0.008868
						CHANNELS 3 Zrotation Yrotation Xrotation
						JOINT LeftForeArm
						{
							OFFSET 0.259612 -0.012772 -0.027456
							CHANNELS 3 Zrotation Yrotation Xrotation
							JOINT LeftHand
							{
								OFFSET 0.249234 0.008986 -0.001171
								CHANNELS 3 Zrotation Yrotation Xrotation
								End Site
								{
									OFFSET 0.000000 0.000000 0.000000
								}
							}
						}
					}
				}
				JOINT RightShoulder
				{
					OFFSET -0.081759 0.118833 -0.038615
					CHANNELS 3 Zrotation Yrotation Xrotation
					JOINT RightArm
					{
						OFFSET -0.096012 0.032551 -0.009143
						CHANNELS 3 Zrotation Yrotation Xrotation
						JOINT RightForeArm
						{
							OFFSET -0.253742 -0.013329 -0.021401
							CHANNELS 3 Zrotation Yrotation Xrotation
							JOINT RightHand
							{
								OFFSET -0.255298 0.007772 -0.005559
								CHANNELS 3 Zrotation Yrotation Xrotation
								End Site
								{
									OFFSET 0.000000 0.000000 0.000000
								}
							}
						}
					}
				}
			}
		}
	}
}
MOTION
Frames: 5
Frame Time: 0.050000
0.000000 0.858557 0.000000 -1.256958 -0.269013 30.708728 5.736151 -2.400668 -61.999471 -5.713462 1.264114 30.994406 5.330485 12.300811 1.225290 0.000000 0.000000 0.000000 -13.752280 -0.340177 -59.857773 13.638174 -3.799927 26.687458 -12.303521 -31.557182 2.527592 0.000000 0.000000 0.000000 1.535217 -3.569001 56.115170 -5.939442 1.710269 -24.994006 -1.472685 4.844518 30.280538 12.495225 -6.569505 -16.636405 0.000000 0.000000 0.000000 -15.166730 -9.212898 3.285800 -54.060359 -8.435832 -5.303353 -74.304845 -56.640592 49.046417 0.000000 0.000000 0.000000 14.147151 -0.157455 0.276273 64.874424 3.077113 -6.924645 88.191249 50.464286 57.130652 0.000000 0.000000 0.000000 
0.000072 0.858457 0.000070 -1.977829 -1.575805 33.113832 6.265981 -1.588998 -64.025504 -5.493380 1.317841 32.148403 5.131010 11.361381 -1.138571 0.000000 0.000000 0.000000 -13.350407 0.376428 -61.698396 14.421108 -3.846912 25.563327 -11.757710 -30.555943 3.792238 0.000000 0.000000 0.000000 0.206334 -2.188989 53.856139 -3.848291 1.290056 -26.570574 -1.406677 8.744979 32.664904 16.294465 -9.164453 -15.551588 0.000000 0.000000 0.000000 -17.908958 -13.564535 4.728077 -47.948014 -5.931670 -5.602168 -103.563373 -58.610719 74.521405 0.000000 0.000000 0.000000 19.492418 -0.582979 1.159360 60.680256 0.496709 -8.360138 102.565785 54.813425 76.739006 0.000000 0.000000 0.000000 
-0.000113 0.856647 0.001033 -0.846868 -1.695113 31.361565 6.083472 -1.752134 -62.716150 -6.417400 1.718332 32.493559 5.168019 11.122877 -2.389444 0.000000 0.000000 0.000000 -14.457846 -0.216808 -60.282500 16.302257 -4.628932 26.653372 -13.012713 -33.839117 1.438498 0.000000 0.000000 0.000000 0.304088 -2.253275 55.320955 -3.692396 1.287681 -26.765198 -1.852854 8.184212 33.323120 17.251420 -10.546917 -13.926409 0.000000 0.000000 0.000000 -18.202410 -14.743189 5.633194 -48.916098 -5.388004 -6.032695 -104.713907 -61.466577 79.358754 0.000000 0.000000 0.000000 17.159789 -1.065082 0.547443 60.816754 0.111572 -8.488825 107.874008 50.968808 77.509972 0.000000 0.000000 0.000000 
-0.000184 0.853268 0.003312 -0.602820 -1.871036 31.433181 5.421783 -2.098630 -63.983314 -6.015546 1.605499 34.385012 4.506867 9.561460 -2.465551 0.000000 0.000000 0.000000 -15.140520 -0.553693 -61.263586 17.117704 -5.019936 27.299347 -12.906675 -33.482750 2.083180 0.000000 0.000000 0.000000 -0.060363 -1.985871 54.923008 -3.653117 1.278409 -26.265541 -1.898996 7.493123 32.181621 18.122120 -11.471102 -13.173225 0.000000 0.000000 0.000000 -19.574705 -16.013281 6.641030 -49.141344 -3.310450 -6.665859 -110.079979 -62.451584 86.272917 0.000000 0.000000 0.000000 17.305851 0.258174 1.125153 59.666584 -2.257193 -9.393132 114.835554 52.748214 86.301728 0.000000 0.000000 0.000000 
-0.000433 0.847489 0.006781 -0.255173 -1.903994 30.501283 5.017829 -2.359813 -64.233059 -6.718084 1.973444 36.213504 5.655112 12.039874 -3.379946 0.000000 0.000000 0.000000 -14.926319 -0.458695 -60.617177 16.593113 -4.916471 28.055619 -13.140079 -34.468310 0.532180 0.000000 0.000000 0.000000 0.342892 -2.253886 55.010112 -3.664776 1.283265 -26.442858 -2.160860 7.674413 32.301187 17.277097 -10.900209 -12.940789 0.000000 0.000000 0.000000 -18.658297 -16.521906 6.838068 -51.443186 -3.970305 -6.731344 -112.505216 -64.974687 91.987083 0.000000 0.000000 0.000000 16.103380 -0.737855 0.537174 59.882828 -2.662007 -9.531832 116.100435 51.397651 86.377032 0.000000 0.000000 0.000000 
